<svg xmlns="http://www.w3.org/2000/svg" viewBox="0 0 512 512"><path d="M256 0c-85.603 0-155.242 69.64-155.242 155.242 0 82.593 141.696 288.676 147.729 297.413a9.122 9.122 0 0 0 7.513 3.94 9.12 9.12 0 0 0 7.513-3.94c6.033-8.736 147.729-214.819 147.729-297.413C411.243 69.64 341.603 0 256 0zm0 431.166c-29.679-44.334-136.979-209.271-136.979-275.924 0-75.53 61.449-136.979 136.979-136.979 75.53 0 136.979 61.449 136.979 136.979 0 66.635-107.305 231.586-136.979 275.924z"/><path d="M256 91.319c-35.248 0-63.923 28.676-63.923 63.923 0 35.249 28.675 63.923 63.923 63.923 35.248 0 63.923-28.674 63.923-63.923 0-35.247-28.675-63.923-63.923-63.923zm0 109.583c-25.175 0-45.66-20.484-45.66-45.66 0-25.174 20.484-45.66 45.66-45.66 25.175 0 45.66 20.486 45.66 45.66 0 25.176-20.485 45.66-45.66 45.66zM456.661 500.164l-36.528-154.936c-.972-4.124-4.655-6.734-8.891-6.734h-36.528a9.133 9.133 0 0 0 0 18.264h29.295l32.229 136.979H75.761l32.229-136.979h29.295a9.133 9.133 0 0 0 0-18.264h-36.528c-4.236 0-7.919 2.61-8.891 6.734l-36.528 155.09c-.638 2.716 0 5.803 1.735 7.993 1.73 2.185 4.365 3.69 7.157 3.69h383.54c2.791 0 5.426-1.582 7.156-3.767 1.735-2.19 2.373-5.354 1.735-8.07z"/></svg>