<?xml version="1.0" encoding="utf-8"?>
<!-- Generator: Adobe Illustrator 26.0.3, SVG Export Plug-In . SVG Version: 6.00 Build 0)  -->
<svg version="1.1" id="Layer_1" xmlns="http://www.w3.org/2000/svg" xmlns:xlink="http://www.w3.org/1999/xlink" x="0px" y="0px"
	 viewBox="0 0 45 45.4" style="enable-background:new 0 0 45 45.4;" xml:space="preserve">
<style type="text/css">
	.st0{fill:#7AD06D;}
</style>
<g>
	<path class="st0" d="M21.4,0C9.4,0.6,0,10.6,0,22.6c0,3.7,0.9,7.1,2.4,10.1L0.1,44.3c-0.1,0.6,0.4,1.2,1.1,1l11.4-2.7
		c2.9,1.5,6.2,2.3,9.7,2.3c12.2,0.2,22.5-9.5,22.8-21.8C45.4,10.1,34.6-0.6,21.4,0z M35,35c-3.3,3.3-7.8,5.2-12.5,5.2
		c-2.8,0-5.4-0.6-7.8-1.8l-1.6-0.8l-7,1.7L7.6,32l-0.8-1.5c-1.3-2.5-1.9-5.2-1.9-8c0-4.7,1.8-9.1,5.2-12.5c3.3-3.3,7.8-5.2,12.5-5.2
		c4.7,0,9.1,1.8,12.5,5.2c3.3,3.3,5.2,7.8,5.2,12.5C40.1,27.2,38.3,31.7,35,35z"/>
	<path class="st0" d="M33.4,27.4l-4.4-1.3c-0.6-0.2-1.2,0-1.6,0.4l-1.1,1.1c-0.4,0.5-1.1,0.6-1.7,0.4c-2.1-0.8-6.4-4.7-7.5-6.6
		c-0.3-0.6-0.3-1.3,0.1-1.8l0.9-1.2c0.4-0.5,0.4-1.1,0.2-1.7l-1.8-4.1c-0.4-1-1.7-1.3-2.5-0.6c-1.2,1-2.7,2.6-2.8,4.3
		c-0.3,3.1,1,6.9,6,11.5c5.7,5.3,10.3,6,13.3,5.3c1.7-0.4,3-2.1,3.9-3.4C34.9,28.9,34.5,27.7,33.4,27.4z"/>
</g>
</svg>
